<svg width="108" height="84" viewBox="0 0 108 84" fill="none" xmlns="http://www.w3.org/2000/svg">
<g clip-path="url(#clip0_2_18)">
<path d="M35.3376 69.2998C54.4581 69.2998 69.9584 53.7995 69.9584 34.679C69.9584 15.5585 54.4581 0.058197 35.3376 0.058197C16.2171 0.058197 0.716797 15.5585 0.716797 34.679C0.716797 53.7995 16.2171 69.2998 35.3376 69.2998Z" fill="#494949" fill-opacity="0.09"/>
<path d="M71.2631 14V30.6892M71.2631 14C68.8824 14 66.5598 14.2493 64.3202 14.7231M71.2631 14C73.6439 14 75.9664 14.2493 78.206 14.7231M71.2631 30.6892C62.0459 30.6892 54.574 38.1613 54.574 47.3785M71.2631 30.6892C80.4803 30.6892 87.9524 38.1613 87.9524 47.3785M54.574 47.3785C54.574 56.5957 62.0459 64.0676 71.2631 64.0676M54.574 47.3785H37.8848M87.9524 47.3785C87.9524 56.5957 80.4803 64.0676 71.2631 64.0676M87.9524 47.3785H104.642M71.2631 64.0676V80.7568M71.2631 80.7568C73.6403 80.7568 75.9594 80.5083 78.196 80.0359M71.2631 80.7568C68.8771 80.7568 66.5495 80.5065 64.3053 80.0306M47.661 23.7763L59.4621 35.5774M83.0642 59.1795L94.8652 70.9805M37.8848 47.3785C37.8848 49.7594 38.134 52.0821 38.6079 54.3219M37.8848 47.3785C37.8848 44.9941 38.1347 42.668 38.61 40.4251M104.642 47.3785C104.642 44.9976 104.392 42.6748 103.918 40.435M104.642 47.3785C104.642 49.7585 104.392 52.0802 103.919 54.3192M47.661 70.9805L59.4621 59.1795M83.0642 35.5774L94.8652 23.7763M89.4432 19.3809C93.3629 21.9313 96.7137 25.2827 99.2636 29.2028M99.2544 65.5682C96.7041 69.4847 93.3541 72.8327 89.4359 75.3807M53.0843 75.3768C49.1701 72.8302 45.8232 69.4851 43.2745 65.5723M43.2644 29.2001C45.8136 25.2817 49.1631 21.9318 53.0811 19.3821" stroke="black" stroke-width="6" stroke-linecap="round" stroke-linejoin="round"/>
</g>
<defs>
<clipPath id="clip0_2_18">
<rect width="108" height="84" fill="white"/>
</clipPath>
</defs>
</svg>
