<svg width="40" height="41" viewBox="0 0 40 41" fill="none" xmlns="http://www.w3.org/2000/svg">
<path d="M14.8108 15.119L7.09874 7.40688M7.09874 33.3295L14.8689 25.5593M25.3044 25.6175L33.0165 33.3295M33.0165 7.40688L25.2452 15.1782M38.3901 20.3682C38.3901 30.4916 30.1835 38.6982 20.0601 38.6982C9.93664 38.6982 1.72998 30.4916 1.72998 20.3682C1.72998 10.2447 9.93664 2.03809 20.0601 2.03809C30.1835 2.03809 38.3901 10.2447 38.3901 20.3682ZM27.3921 20.3682C27.3921 24.4175 24.1094 27.7002 20.0601 27.7002C16.0107 27.7002 12.728 24.4175 12.728 20.3682C12.728 16.3188 16.0107 13.0361 20.0601 13.0361C24.1094 13.0361 27.3921 16.3188 27.3921 20.3682Z" stroke="black" stroke-width="3" stroke-linecap="round" stroke-linejoin="round"/>
</svg>
