<svg width="94" height="84" viewBox="0 0 94 84" fill="none" xmlns="http://www.w3.org/2000/svg">
<g clip-path="url(#clip0_2_14)">
<path d="M35.5739 69.2998C54.6945 69.2998 70.1947 53.7995 70.1947 34.679C70.1947 15.5585 54.6945 0.058197 35.5739 0.058197C16.4534 0.058197 0.953125 15.5585 0.953125 34.679C0.953125 53.7995 16.4534 69.2998 35.5739 69.2998Z" fill="#494949" fill-opacity="0.09"/>
<path d="M56.6908 14V30.6892M56.6908 14C54.3101 14 51.9876 14.2493 49.7479 14.7231M56.6908 14C59.0716 14 61.3941 14.2493 63.6338 14.7231M56.6908 30.6892C47.4736 30.6892 40.0017 38.1613 40.0017 47.3785M56.6908 30.6892C65.908 30.6892 73.3801 38.1613 73.3801 47.3785M40.0017 47.3785C40.0017 56.5957 47.4736 64.0676 56.6908 64.0676M40.0017 47.3785H23.3125M73.3801 47.3785C73.3801 56.5957 65.908 64.0676 56.6908 64.0676M73.3801 47.3785H90.0693M56.6908 64.0676V80.7568M56.6908 80.7568C59.068 80.7568 61.3872 80.5083 63.6237 80.0359M56.6908 80.7568C54.3048 80.7568 51.9773 80.5065 49.733 80.0306M33.0887 23.7763L44.8898 35.5774M68.4919 59.1795L80.2929 70.9805M23.3125 47.3785C23.3125 49.7594 23.5617 52.0821 24.0356 54.3219M23.3125 47.3785C23.3125 44.9941 23.5624 42.668 24.0377 40.4251M90.0693 47.3785C90.0693 44.9976 89.82 42.6748 89.3461 40.435M90.0693 47.3785C90.0693 49.7585 89.8202 52.0802 89.3466 54.3192M33.0887 70.9805L44.8898 59.1795M68.4919 35.5774L80.2929 23.7763M74.8709 19.3809C78.7907 21.9313 82.1415 25.2827 84.6914 29.2028M84.6821 65.5682C82.1318 69.4847 78.7818 72.8327 74.8637 75.3807M38.5121 75.3768C34.5979 72.8302 31.2509 69.4851 28.7023 65.5723M28.6921 29.2001C31.2414 25.2817 34.5909 21.9318 38.5089 19.3821" stroke="black" stroke-width="6" stroke-linecap="round" stroke-linejoin="round"/>
</g>
<defs>
<clipPath id="clip0_2_14">
<rect width="94" height="84" fill="white"/>
</clipPath>
</defs>
</svg>
