<svg width="122" height="100" viewBox="0 0 122 100" fill="none" xmlns="http://www.w3.org/2000/svg">
<g clip-path="url(#clip0_2_10)">
<path d="M86.9328 99.7207C106.053 99.7207 121.554 84.2204 121.554 65.0999C121.554 45.9794 106.053 30.4791 86.9328 30.4791C67.8123 30.4791 52.312 45.9794 52.312 65.0999C52.312 84.2204 67.8123 99.7207 86.9328 99.7207Z" fill="#494949" fill-opacity="0.09"/>
<path d="M37.0727 3V19.6892M37.0727 3C34.6919 3 32.3694 3.24925 30.1297 3.72308M37.0727 3C39.4534 3 41.776 3.24925 44.0156 3.72308M37.0727 19.6892C27.8555 19.6892 20.3835 27.1613 20.3835 36.3785M37.0727 19.6892C46.2899 19.6892 53.762 27.1613 53.762 36.3785M20.3835 36.3785C20.3835 45.5957 27.8555 53.0676 37.0727 53.0676M20.3835 36.3785H3.69434M53.762 36.3785C53.762 45.5957 46.2899 53.0676 37.0727 53.0676M53.762 36.3785H70.4512M37.0727 53.0676V69.7568M37.0727 69.7568C39.4499 69.7568 41.769 69.5083 44.0056 69.0359M37.0727 69.7568C34.6866 69.7568 32.3591 69.5065 30.1148 69.0306M13.4706 12.7763L25.2716 24.5774M48.8737 48.1795L60.6748 59.9805M3.69434 36.3785C3.69434 38.7594 3.94355 41.0821 4.41745 43.3219M3.69434 36.3785C3.69434 33.9941 3.94428 31.668 4.41953 29.4251M70.4512 36.3785C70.4512 33.9976 70.2018 31.6748 69.7279 29.435M70.4512 36.3785C70.4512 38.7585 70.202 41.0802 69.7285 43.3192M13.4706 59.9805L25.2716 48.1795M48.8737 24.5774L60.6748 12.7763M55.2528 8.38085C59.1725 10.9313 62.5233 14.2827 65.0732 18.2028M65.064 54.5682C62.5136 58.4847 59.1636 61.8327 55.2455 64.3807M18.8939 64.3768C14.9797 61.8302 11.6328 58.4851 9.08409 54.5723M9.07396 18.2001C11.6232 14.2817 14.9727 10.9318 18.8907 8.38207" stroke="black" stroke-width="6" stroke-linecap="round" stroke-linejoin="round"/>
</g>
<defs>
<clipPath id="clip0_2_10">
<rect width="122" height="100" fill="white"/>
</clipPath>
</defs>
</svg>
